<svg width="227" height="71" viewBox="0 0 227 71" fill="none" xmlns="http://www.w3.org/2000/svg">
<path d="M31.6919 21.9554C32.0964 18.5211 34.948 15.8968 38.404 15.7783L47.5489 15.4647C51.8159 15.3184 55.2189 18.9932 54.7456 23.2365L51.7518 50.079C51.3618 53.5755 48.4371 56.2393 44.9194 56.3019L29.7273 56.5722L21.0592 57.015C15.3757 57.3054 13.7807 64.9552 18.8748 67.4926C22.3033 69.2004 26.3881 66.9916 26.8361 63.1875L31.6919 21.9554Z" fill="white"/>
<path d="M79.5948 49.0446C79.1904 52.4789 76.3387 55.1032 72.8827 55.2217L63.7379 55.5353C59.4708 55.6816 56.0679 52.0068 56.5411 47.7635L59.5349 20.921C59.9249 17.4245 62.8496 14.7607 66.3673 14.6981L81.0628 14.4366C81.3935 14.4308 81.7242 14.4483 82.0523 14.4892L88.9663 15.3502C94.4529 16.0334 97.3017 9.01033 92.8895 5.67827C89.5594 3.16335 84.7567 5.21302 84.2686 9.35746L79.5948 49.0446Z" fill="white"/>
<path d="M121.679 49.5833C119.519 49.5833 117.679 49.17 116.159 48.3433C114.639 47.5167 113.452 46.3433 112.599 44.8233C111.772 43.3033 111.279 41.4767 111.119 39.3433L116.839 39.0633C116.999 40.2633 117.306 41.2767 117.759 42.1033C118.212 42.93 118.786 43.5433 119.479 43.9433C120.172 44.3433 120.999 44.5433 121.959 44.5433C122.812 44.5433 123.532 44.4233 124.119 44.1833C124.732 43.9433 125.199 43.5967 125.519 43.1433C125.839 42.6633 125.999 42.09 125.999 41.4233C125.999 40.7033 125.826 40.0633 125.479 39.5033C125.132 38.9433 124.519 38.4367 123.639 37.9833C122.786 37.53 121.572 37.1033 119.999 36.7033C118.106 36.2233 116.532 35.65 115.279 34.9833C114.052 34.3167 113.146 33.4633 112.559 32.4233C111.972 31.3833 111.679 30.0767 111.679 28.5033C111.679 26.77 112.052 25.2633 112.799 23.9833C113.572 22.6767 114.679 21.6767 116.119 20.9833C117.586 20.2633 119.359 19.9033 121.439 19.9033C123.466 19.9033 125.199 20.2767 126.639 21.0233C128.079 21.77 129.199 22.85 129.999 24.2633C130.826 25.6767 131.306 27.3967 131.439 29.4233L125.679 29.7033C125.546 28.7167 125.292 27.8633 124.919 27.1433C124.546 26.4233 124.039 25.8767 123.399 25.5033C122.786 25.13 122.052 24.9433 121.199 24.9433C120.052 24.9433 119.132 25.2367 118.439 25.8233C117.772 26.41 117.439 27.21 117.439 28.2233C117.439 28.89 117.599 29.4633 117.919 29.9433C118.266 30.4233 118.852 30.85 119.679 31.2233C120.532 31.5967 121.692 31.9833 123.159 32.3833C125.319 32.89 127.026 33.5567 128.279 34.3833C129.532 35.21 130.426 36.1833 130.959 37.3033C131.492 38.4233 131.759 39.73 131.759 41.2233C131.759 42.93 131.359 44.41 130.559 45.6633C129.759 46.89 128.599 47.85 127.079 48.5433C125.586 49.2367 123.786 49.5833 121.679 49.5833ZM135.263 54.9433V27.5033H140.503L140.663 32.4633L140.143 32.2233C140.703 30.5433 141.557 29.2633 142.703 28.3833C143.85 27.4767 145.29 27.0233 147.023 27.0233C148.917 27.0233 150.49 27.5167 151.743 28.5033C152.997 29.49 153.93 30.8367 154.543 32.5433C155.183 34.2233 155.503 36.1167 155.503 38.2233C155.503 40.3033 155.183 42.1967 154.543 43.9033C153.93 45.61 152.997 46.9567 151.743 47.9433C150.49 48.93 148.917 49.4233 147.023 49.4233C145.877 49.4233 144.85 49.25 143.943 48.9033C143.037 48.5567 142.263 48.0367 141.623 47.3433C141.01 46.6233 140.503 45.7433 140.103 44.7033L140.703 44.1833V54.9433H135.263ZM145.343 44.6233C146.783 44.6233 147.89 44.1033 148.663 43.0633C149.463 42.0233 149.863 40.41 149.863 38.2233C149.863 36.0367 149.463 34.4233 148.663 33.3833C147.89 32.3433 146.783 31.8233 145.343 31.8233C144.437 31.8233 143.623 32.05 142.903 32.5033C142.21 32.9567 141.663 33.6633 141.263 34.6233C140.89 35.5567 140.703 36.7567 140.703 38.2233C140.703 39.69 140.89 40.9033 141.263 41.8633C141.663 42.7967 142.21 43.49 142.903 43.9433C143.623 44.3967 144.437 44.6233 145.343 44.6233ZM168.768 49.4233C166.768 49.4233 164.994 48.97 163.448 48.0633C161.928 47.13 160.728 45.8233 159.848 44.1433C158.994 42.4633 158.568 40.49 158.568 38.2233C158.568 36.01 158.994 34.0633 159.848 32.3833C160.701 30.7033 161.888 29.3967 163.408 28.4633C164.928 27.5033 166.688 27.0233 168.688 27.0233C170.661 27.0233 172.394 27.49 173.888 28.4233C175.408 29.3567 176.594 30.6767 177.448 32.3833C178.301 34.0633 178.728 36.05 178.728 38.3433V39.7033H164.168C164.301 41.3033 164.781 42.53 165.608 43.3833C166.461 44.21 167.554 44.6233 168.888 44.6233C169.874 44.6233 170.714 44.3967 171.408 43.9433C172.101 43.4633 172.581 42.8233 172.848 42.0233L178.288 42.3833C177.568 44.6233 176.394 46.3567 174.768 47.5833C173.168 48.81 171.168 49.4233 168.768 49.4233ZM164.248 35.9833H172.928C172.794 34.5967 172.341 33.5567 171.568 32.8633C170.794 32.17 169.821 31.8233 168.648 31.8233C167.421 31.8233 166.421 32.1833 165.648 32.9033C164.901 33.5967 164.434 34.6233 164.248 35.9833ZM183.152 48.9433V43.8233H189.352V25.6633H183.152V20.5433H201.232V25.6633H195.032V43.8233H201.232V48.9433H183.152ZM206.337 48.9433V20.5433H212.017V47.3033L207.857 43.8233H224.417V48.9433H206.337Z" fill="white"/>
</svg>
