<svg width="109" height="71" viewBox="0 0 109 71" fill="none" xmlns="http://www.w3.org/2000/svg">
<path d="M31.6919 21.9554C32.0964 18.5211 34.948 15.8968 38.404 15.7783L47.5489 15.4647C51.8159 15.3184 55.2189 18.9932 54.7456 23.2365L51.7518 50.079C51.3618 53.5755 48.4371 56.2393 44.9194 56.3019L29.7273 56.5722L21.0592 57.015C15.3757 57.3054 13.7807 64.9552 18.8748 67.4926C22.3033 69.2004 26.3881 66.9916 26.8361 63.1875L31.6919 21.9554Z" fill="white"/>
<path d="M79.5948 49.0446C79.1904 52.4789 76.3387 55.1032 72.8827 55.2217L63.7379 55.5353C59.4708 55.6816 56.0679 52.0068 56.5411 47.7635L59.5349 20.921C59.9249 17.4245 62.8496 14.7607 66.3673 14.6981L81.0628 14.4366C81.3935 14.4308 81.7242 14.4483 82.0523 14.4892L88.9663 15.3502C94.4529 16.0334 97.3017 9.01033 92.8895 5.67827C89.5594 3.16335 84.7567 5.21302 84.2686 9.35746L79.5948 49.0446Z" fill="white"/>
</svg>
